<svg width="100" height="100" viewBox="0 0 100 100" fill="none" xmlns="http://www.w3.org/2000/svg">
<path d="M98.5332 84.4959H96.1048V29.3459C96.1048 23.7085 91.8047 19.122 86.5192 19.122H82.7224C81.912 19.122 81.2554 19.8224 81.2554 20.6867C81.2554 21.5511 81.912 22.2515 82.7224 22.2515H86.5192C90.1869 22.2515 93.1708 25.4341 93.1708 29.3459V84.4959H60.3776C59.3765 84.4959 58.4425 85.0227 57.8796 85.9054L57.4397 86.5949C57.0309 87.2356 56.3531 87.618 55.6264 87.618H44.1777C43.4513 87.618 42.7733 87.2356 42.3645 86.5949L41.9246 85.9054C41.3615 85.0229 40.4277 84.4959 39.4266 84.4959H6.82959V29.3459C6.82959 25.4341 9.81347 22.2515 13.4812 22.2515H37.3448C38.155 22.2515 38.8118 21.5511 38.8118 20.6867C38.8118 19.8224 38.155 19.122 37.3448 19.122H13.481C8.19547 19.122 3.89539 23.7083 3.89539 29.3459V84.4959H1.467C0.656827 84.4959 0 85.1962 0 86.0606V89.3183C0 95.2082 4.49255 100 10.0146 100H89.9855C95.5074 100 100 95.2082 100 89.3183V86.0606C100 85.1962 99.3434 84.4959 98.5332 84.4959ZM97.0662 89.3183C97.0662 93.4826 93.8898 96.8705 89.9856 96.8705H10.0146C6.11037 96.8705 2.93401 93.4826 2.93401 89.3183V87.6253H39.427C39.456 87.6253 39.4831 87.6405 39.4994 87.666L39.9393 88.3555C40.8948 89.8533 42.4794 90.7475 44.178 90.7475H55.6266C57.3252 90.7475 58.9096 89.8533 59.8653 88.3555L60.3052 87.666L60.3054 87.6658C60.3216 87.6403 60.3486 87.6253 60.3776 87.6253H97.066V89.3183H97.0662Z" fill="#5C9CF6"/>
<path d="M54.8235 20.6867C54.8235 21.5511 55.4801 22.2515 56.2905 22.2515H61.808C62.6184 22.2515 63.275 21.5511 63.275 20.6867C63.275 19.8224 62.6184 19.122 61.808 19.122H56.2905C55.4801 19.122 54.8235 19.8224 54.8235 20.6867Z" fill="#5C9CF6"/>
<path d="M61.808 28.9274C62.6184 28.9274 63.275 28.227 63.275 27.3627C63.275 26.4983 62.6184 25.798 61.808 25.798H56.2905C55.4801 25.798 54.8235 26.4983 54.8235 27.3627C54.8235 28.227 55.4801 28.9274 56.2905 28.9274H61.808Z" fill="#5C9CF6"/>
<path d="M67.676 50.3214C66.8657 50.3214 66.209 51.0218 66.209 51.8861V77.8197H62.7422V38.7933C62.7422 36.8967 61.2955 35.3536 59.5171 35.3536H53.8549C52.0765 35.3536 50.6298 36.8967 50.6298 38.7933V77.8197H47.1632V47.4947C47.1632 45.598 45.7165 44.055 43.9381 44.055H38.2757C36.4975 44.055 35.0508 45.598 35.0508 47.4947V77.8197H31.584V54.2378C31.584 52.3409 30.1374 50.7979 28.3591 50.7979H22.6967C20.9185 50.7979 19.4716 52.3409 19.4716 54.2378V62.6506C19.4716 63.515 20.1285 64.2153 20.9386 64.2153C21.7488 64.2153 22.4057 63.515 22.4057 62.6506V54.2378C22.4057 54.0667 22.5361 53.9274 22.6967 53.9274H28.3591C28.5195 53.9274 28.65 54.0667 28.65 54.2378V77.8195H22.4057V69.3245C22.4057 68.4601 21.7488 67.7597 20.9386 67.7597C20.1285 67.7597 19.4716 68.4601 19.4716 69.3245V77.8195H13.0888V29.3459C13.0888 29.1152 13.2647 28.9274 13.481 28.9274H37.3448C38.155 28.9274 38.8118 28.227 38.8118 27.3627C38.8118 26.4983 38.155 25.798 37.3448 25.798H13.481C11.6468 25.798 10.1548 27.3896 10.1548 29.3459V79.3844C10.1548 80.2488 10.8116 80.9491 11.6218 80.9491H88.3786C89.189 80.9491 89.8456 80.2488 89.8456 79.3844V29.3459C89.8456 27.3896 88.3533 25.798 86.5192 25.798H82.7224C81.912 25.798 81.2554 26.4983 81.2554 27.3627C81.2554 28.227 81.912 28.9274 82.7224 28.9274H86.5192C86.7355 28.9274 86.9116 29.115 86.9116 29.3459V77.8197H78.3214V19.5403C78.3214 17.6436 76.8747 16.1006 75.0965 16.1006H69.4341C67.6559 16.1006 66.2092 17.6436 66.2092 19.5403V45.2122C66.2092 46.0766 66.8659 46.777 67.6762 46.777C68.4866 46.777 69.1432 46.0766 69.1432 45.2122V19.5403C69.1432 19.3692 69.2737 19.2301 69.4341 19.2301H75.0965C75.2569 19.2301 75.3874 19.3692 75.3874 19.5403V77.8197H69.143V51.8861C69.143 51.0218 68.4862 50.3214 67.676 50.3214ZM37.9846 77.8197V47.4947C37.9846 47.3236 38.1151 47.1844 38.2755 47.1844H43.9379C44.0983 47.1844 44.229 47.3236 44.229 47.4947V77.8197H37.9846ZM53.5636 77.8197V38.7933C53.5636 38.6222 53.6943 38.4831 53.8547 38.4831H59.5169C59.6773 38.4831 59.808 38.6222 59.808 38.7933V77.8197H53.5636Z" fill="#5C9CF6"/>
<path d="M39.1422 13.7193H41.746V17.3065C41.746 18.1709 42.4029 18.8712 43.2131 18.8712C44.0232 18.8712 44.6801 18.1709 44.6801 17.3065V12.7596C44.6801 11.5633 43.7674 10.5901 42.6458 10.5901H41.1221L46.8178 3.62975L52.5135 10.5901H50.9899C49.8684 10.5901 48.9559 11.5633 48.9559 12.7596V30.6255H44.6802V23.9806C44.6802 23.1162 44.0234 22.4159 43.2132 22.4159C42.4031 22.4159 41.7462 23.1162 41.7462 23.9806V31.126C41.7462 32.5755 42.852 33.7549 44.211 33.7549H49.4251C50.7842 33.7549 51.8901 32.5757 51.8901 31.126V13.7193H54.4937C55.2896 13.7193 56.0167 13.2199 56.3459 12.4471C56.6751 11.6743 56.5495 10.7618 56.0263 10.1229L48.3507 0.743141C47.9644 0.270802 47.4057 0 46.8182 0C46.2306 0 45.6719 0.270802 45.2856 0.743141L37.6103 10.1227C37.0868 10.7618 36.9615 11.6745 37.2907 12.4471C37.6195 13.2201 38.3463 13.7193 39.1422 13.7193Z" fill="#5C9CF6"/>
</svg>
