<svg width="100" height="100" viewBox="0 0 100 100" fill="none" xmlns="http://www.w3.org/2000/svg">
<path d="M90.3226 54.0806V22.4516C95.7855 21.6645 100 16.9661 100 11.2903C100 5.06613 94.9355 0 88.7097 0C82.4839 0 77.4194 5.06613 77.4194 11.2903H0V75.8064H48.4694C49.3081 89.2839 60.5097 100 74.1936 100C88.4226 100 100 88.4226 100 74.1936C100 66.0661 96.2145 58.8145 90.3226 54.0806ZM88.7097 3.22581C93.1565 3.22581 96.7742 6.84355 96.7742 11.2903C96.7742 15.7371 93.1565 19.3548 88.7097 19.3548C84.2629 19.3548 80.6452 15.7371 80.6452 11.2903C80.6452 6.84355 84.2629 3.22581 88.7097 3.22581ZM3.22581 14.5161H77.8952C78.2806 15.8032 78.8935 16.9887 79.6806 18.0403L69.8161 27.9048C69.1839 27.6016 68.4871 27.4194 67.7419 27.4194C66.9968 27.4194 66.3 27.6016 65.6694 27.9048L62.4194 24.6548C62.721 24.0226 62.9032 23.3258 62.9032 22.5806C62.9032 19.9129 60.7323 17.7419 58.0645 17.7419C55.3968 17.7419 53.2258 19.9129 53.2258 22.5806C53.2258 23.3258 53.4081 24.0226 53.7113 24.6532L45.6226 32.7419C44.9903 32.4403 44.2935 32.2581 43.5484 32.2581C40.8806 32.2581 38.7097 34.429 38.7097 37.0968C38.7097 39.7645 40.8806 41.9355 43.5484 41.9355C46.2161 41.9355 48.3871 39.7645 48.3871 37.0968C48.3871 36.3516 48.2048 35.6548 47.9016 35.0242L55.9903 26.9355C56.6226 27.2371 57.3194 27.4194 58.0645 27.4194C58.8097 27.4194 59.5065 27.2371 60.1371 26.9339L63.3871 30.1839C63.0855 30.8161 62.9032 31.5129 62.9032 32.2581C62.9032 34.9258 65.0742 37.0968 67.7419 37.0968C70.4097 37.0968 72.5806 34.9258 72.5806 32.2581C72.5806 31.5129 72.3984 30.8161 72.0952 30.1855L81.9613 20.321C83.4371 21.4274 85.1887 22.1774 87.0968 22.4532V51.8806C83.2952 49.6726 78.8968 48.3871 74.1936 48.3871C66.4839 48.3871 59.571 51.8032 54.8387 57.1823V50H45.1613V69.3548H48.8581C48.6581 70.4081 48.5371 71.4871 48.4694 72.5806H3.22581V14.5161ZM67.7419 30.6452C68.6306 30.6452 69.3548 31.3677 69.3548 32.2581C69.3548 33.1484 68.6306 33.871 67.7419 33.871C66.8532 33.871 66.129 33.1484 66.129 32.2581C66.129 31.3677 66.8532 30.6452 67.7419 30.6452ZM56.4516 22.5806C56.4516 21.6903 57.1758 20.9677 58.0645 20.9677C58.9532 20.9677 59.6774 21.6903 59.6774 22.5806C59.6774 23.471 58.9532 24.1935 58.0645 24.1935C57.1758 24.1935 56.4516 23.471 56.4516 22.5806ZM45.1613 37.0968C45.1613 37.9871 44.4371 38.7097 43.5484 38.7097C42.6597 38.7097 41.9355 37.9871 41.9355 37.0968C41.9355 36.2065 42.6597 35.4839 43.5484 35.4839C44.4371 35.4839 45.1613 36.2065 45.1613 37.0968ZM74.1936 87.0968C67.079 87.0968 61.2903 81.3081 61.2903 74.1936C61.2903 67.079 67.079 61.2903 74.1936 61.2903C81.3081 61.2903 87.0968 67.079 87.0968 74.1936C87.0968 81.3081 81.3081 87.0968 74.1936 87.0968ZM51.6129 61.7274C50.8403 63.121 50.2016 64.5936 49.6952 66.129H48.3871V53.2258H51.6129V61.7274ZM72.5806 51.6952V58.1468C64.4419 58.9597 58.0645 65.8452 58.0645 74.1936C58.0645 76.5532 58.5871 78.7903 59.5016 80.8129L53.9065 84.0435C52.4516 81.0629 51.6129 77.7274 51.6129 74.1936C51.6129 62.2871 60.8823 52.5274 72.5806 51.6952ZM74.1936 96.7742C66.429 96.7742 59.5677 92.8339 55.5032 86.8468L61.121 83.6032C64.0532 87.6645 68.8129 90.3226 74.1936 90.3226C79.5742 90.3226 84.3339 87.6645 87.2661 83.6032L92.8839 86.8468C88.8194 92.8339 81.9581 96.7742 74.1936 96.7742ZM94.4806 84.0435L88.8855 80.8129C89.8 78.7903 90.3226 76.5532 90.3226 74.1936C90.3226 65.8452 83.9452 58.9581 75.8064 58.1468V51.6952C87.5048 52.5274 96.7742 62.2871 96.7742 74.1936C96.7742 77.7274 95.9355 81.0629 94.4806 84.0435Z" fill="#5C9CF6"/>
<path d="M74.1936 64.5161C68.8565 64.5161 64.5161 68.8565 64.5161 74.1936C64.5161 79.5306 68.8565 83.871 74.1936 83.871C79.5306 83.871 83.871 79.5306 83.871 74.1936C83.871 68.8565 79.5306 64.5161 74.1936 64.5161ZM74.1936 80.6452C70.6355 80.6452 67.7419 77.7516 67.7419 74.1936C67.7419 70.6355 70.6355 67.7419 74.1936 67.7419C77.7516 67.7419 80.6452 70.6355 80.6452 74.1936C80.6452 77.7516 77.7516 80.6452 74.1936 80.6452Z" fill="#5C9CF6"/>
<path d="M6.45161 17.7419H9.67742V20.9677H6.45161V17.7419Z" fill="#5C9CF6"/>
<path d="M12.9032 17.7419H35.4839V20.9677H12.9032V17.7419Z" fill="#5C9CF6"/>
<path d="M6.45161 24.1935H9.67742V27.4194H6.45161V24.1935Z" fill="#5C9CF6"/>
<path d="M12.9032 24.1935H35.4839V27.4194H12.9032V24.1935Z" fill="#5C9CF6"/>
<path d="M6.45161 30.6452H9.67742V33.871H6.45161V30.6452Z" fill="#5C9CF6"/>
<path d="M12.9032 30.6452H35.4839V33.871H12.9032V30.6452Z" fill="#5C9CF6"/>
<path d="M6.45161 37.0968H9.67742V40.3226H6.45161V37.0968Z" fill="#5C9CF6"/>
<path d="M12.9032 37.0968H35.4839V40.3226H12.9032V37.0968Z" fill="#5C9CF6"/>
<path d="M6.45161 69.3548H16.129V53.2258H6.45161V69.3548ZM9.67742 56.4516H12.9032V66.129H9.67742V56.4516Z" fill="#5C9CF6"/>
<path d="M19.3548 69.3548H29.0323V56.4516H19.3548V69.3548ZM22.5806 59.6774H25.8065V66.129H22.5806V59.6774Z" fill="#5C9CF6"/>
<path d="M32.2581 69.3548H41.9355V43.5484H32.2581V69.3548ZM35.4839 46.7742H38.7097V66.129H35.4839V46.7742Z" fill="#5C9CF6"/>
</svg>
