<svg width="100" height="100" viewBox="0 0 100 100" fill="none" xmlns="http://www.w3.org/2000/svg">
<path d="M89.7333 59.0667C92.9256 56.6347 95.513 53.4982 97.2938 49.9019C99.0747 46.3055 100.001 42.3464 100 38.3333C100 31.994 97.5896 25.8919 93.2565 21.2647C88.9234 16.6375 82.9924 13.8318 76.6667 13.4167V5C76.6627 3.67513 76.1347 2.40566 75.1978 1.46884C74.261 0.532012 72.9915 0.00395682 71.6667 0H5C3.67513 0.00395682 2.40566 0.532012 1.46884 1.46884C0.532012 2.40566 0.00395682 3.67513 0 5V95C0.00395682 96.3249 0.532012 97.5943 1.46884 98.5312C2.40566 99.468 3.67513 99.996 5 100H71.6667C72.9915 99.996 74.261 99.468 75.1978 98.5312C76.1347 97.5943 76.6627 96.3249 76.6667 95V86.5333C79.2041 86.1635 81.5495 84.9696 83.3415 83.1354C85.1335 81.3013 86.2727 78.9287 86.5833 76.3833C87.5704 76.0585 88.4309 75.4324 89.0438 74.5933C89.6567 73.7541 89.9913 72.744 90.0005 71.7049C90.0097 70.6657 89.693 69.6499 89.0951 68.8C88.4971 67.9501 87.6478 67.309 86.6667 66.9667V65.5167C86.6494 64.2785 86.9169 63.0528 87.4487 61.9344C87.9804 60.8161 88.7621 59.8349 89.7333 59.0667ZM73.3333 95C73.3333 95.442 73.1577 95.866 72.8452 96.1785C72.5326 96.4911 72.1087 96.6667 71.6667 96.6667H5C4.55797 96.6667 4.13405 96.4911 3.82149 96.1785C3.50893 95.866 3.33333 95.442 3.33333 95V5C3.33333 4.55797 3.50893 4.13405 3.82149 3.82149C4.13405 3.50893 4.55797 3.33333 5 3.33333H71.6667C72.1087 3.33333 72.5326 3.50893 72.8452 3.82149C73.1577 4.13405 73.3333 4.55797 73.3333 5V13.4C72.55 13.45 71.75 13.5333 70.9667 13.65C66.7736 14.3188 62.8215 16.0499 59.4869 18.6785C56.1523 21.3071 53.5461 24.7457 51.9167 28.6667C49.7679 33.9241 49.4117 39.7431 50.903 45.2234C52.3943 50.7036 55.6501 55.5397 60.1667 58.9833C61.1589 59.7577 61.9604 60.7493 62.5094 61.8819C63.0584 63.0146 63.3402 64.258 63.3333 65.5167V66.9667C62.3522 67.309 61.5029 67.9501 60.9049 68.8C60.3069 69.6499 59.9903 70.6657 59.9995 71.7049C60.0087 72.744 60.3433 73.7541 60.9562 74.5933C61.5691 75.4324 62.4296 76.0585 63.4167 76.3833C63.7273 78.9287 64.8664 81.3013 66.6584 83.1354C68.4504 84.9696 70.7959 86.1635 73.3333 86.5333V95ZM75 83.3333C73.0797 83.3309 71.2189 82.6665 69.7312 81.4521C68.2436 80.2378 67.2202 78.5476 66.8333 76.6667H83.1667C82.7798 78.5476 81.7564 80.2378 80.2688 81.4521C78.7811 82.6665 76.9203 83.3309 75 83.3333ZM85 73.3333H65C64.558 73.3333 64.134 73.1577 63.8215 72.8452C63.5089 72.5326 63.3333 72.1087 63.3333 71.6667C63.3333 71.2246 63.5089 70.8007 63.8215 70.4882C64.134 70.1756 64.558 70 65 70H85C85.442 70 85.866 70.1756 86.1785 70.4882C86.4911 70.8007 86.6667 71.2246 86.6667 71.6667C86.6667 72.1087 86.4911 72.5326 86.1785 72.8452C85.866 73.1577 85.442 73.3333 85 73.3333ZM83.3333 65.5167V66.6667H66.6667V65.5167C66.6713 63.7451 66.2695 61.996 65.4923 60.4039C64.7151 58.8119 63.5831 57.4193 62.1833 56.3333C58.2915 53.302 55.4877 49.0903 54.1925 44.3303C52.8973 39.5703 53.1807 34.5187 55 29.9333C56.4066 26.5394 58.6609 23.5634 61.547 21.2901C64.4331 19.0169 67.8543 17.5225 71.4833 16.95C74.5842 16.444 77.758 16.6177 80.7852 17.4591C83.8124 18.3005 86.6206 19.7895 89.0156 21.8231C91.4106 23.8567 93.3352 26.3864 94.6563 29.2371C95.9773 32.0878 96.6633 35.1914 96.6667 38.3333C96.6468 41.8253 95.8321 45.267 94.2843 48.3973C92.7365 51.5276 90.4962 54.2643 87.7333 56.4C86.3477 57.4784 85.2298 58.8622 84.4666 60.4435C83.7034 62.0248 83.3156 63.7609 83.3333 65.5167Z" fill="#5C9CF6"/>
<path d="M75 30C76.3261 30 77.5978 30.5268 78.5355 31.4645C79.4732 32.4021 80 33.6739 80 35C80 35.442 80.1756 35.866 80.4882 36.1785C80.8007 36.4911 81.2246 36.6667 81.6667 36.6667C82.1087 36.6667 82.5326 36.4911 82.8452 36.1785C83.1577 35.866 83.3333 35.442 83.3333 35C83.3309 33.0797 82.6665 31.2189 81.4521 29.7312C80.2378 28.2436 78.5476 27.2202 76.6667 26.8333V25C76.6667 24.558 76.4911 24.134 76.1785 23.8215C75.866 23.5089 75.442 23.3333 75 23.3333C74.558 23.3333 74.134 23.5089 73.8215 23.8215C73.5089 24.134 73.3333 24.558 73.3333 25V26.8333C71.3081 27.2446 69.5079 28.3937 68.2822 30.0575C67.0565 31.7214 66.4928 33.7814 66.7005 35.8375C66.9082 37.8936 67.8724 39.7992 69.4061 41.1844C70.9398 42.5695 72.9334 43.3354 75 43.3333C75.9889 43.3333 76.9556 43.6266 77.7778 44.176C78.6001 44.7254 79.241 45.5063 79.6194 46.4199C79.9978 47.3335 80.0968 48.3389 79.9039 49.3088C79.711 50.2787 79.2348 51.1696 78.5355 51.8689C77.8363 52.5681 76.9454 53.0443 75.9754 53.2373C75.0055 53.4302 74.0002 53.3312 73.0866 52.9527C72.173 52.5743 71.3921 51.9334 70.8427 51.1112C70.2932 50.2889 70 49.3222 70 48.3333C70 47.8913 69.8244 47.4674 69.5118 47.1548C69.1993 46.8423 68.7754 46.6667 68.3333 46.6667C67.8913 46.6667 67.4674 46.8423 67.1548 47.1548C66.8423 47.4674 66.6667 47.8913 66.6667 48.3333C66.6691 50.2537 67.3335 52.1145 68.5479 53.6021C69.7622 55.0897 71.4523 56.1132 73.3333 56.5V58.3333C73.3333 58.7754 73.5089 59.1993 73.8215 59.5118C74.134 59.8244 74.558 60 75 60C75.442 60 75.866 59.8244 76.1785 59.5118C76.4911 59.1993 76.6667 58.7754 76.6667 58.3333V56.5C78.6919 56.0888 80.4921 54.9397 81.7178 53.2758C82.9435 51.6119 83.5072 49.552 83.2995 47.4958C83.0918 45.4397 82.1276 43.5341 80.5939 42.149C79.0602 40.7638 77.0666 39.9979 75 40C73.6739 40 72.4022 39.4732 71.4645 38.5355C70.5268 37.5979 70 36.3261 70 35C70 33.6739 70.5268 32.4021 71.4645 31.4645C72.4022 30.5268 73.6739 30 75 30Z" fill="#5C9CF6"/>
<path d="M56.3333 67.3333L46.3333 54C46.1705 53.8044 45.9667 53.6471 45.7362 53.5391C45.5058 53.4311 45.2545 53.3752 45 53.3752C44.7455 53.3752 44.4942 53.4311 44.2638 53.5391C44.0333 53.6471 43.8295 53.8044 43.6667 54L33.6667 67.3333C33.4812 67.5821 33.3689 67.8778 33.3424 68.187C33.3159 68.4961 33.3763 68.8066 33.5167 69.0833C33.6516 69.361 33.8627 69.5947 34.1253 69.757C34.3879 69.9193 34.6913 70.0035 35 70H38.3333V88.3333C38.3333 88.7754 38.5089 89.1993 38.8215 89.5118C39.134 89.8244 39.558 90 40 90H50C50.2189 90 50.4356 89.9569 50.6378 89.8731C50.84 89.7894 51.0237 89.6666 51.1785 89.5118C51.3333 89.3571 51.456 89.1733 51.5398 88.9711C51.6236 88.7689 51.6667 88.5522 51.6667 88.3333V70H55C55.3087 70.0035 55.6121 69.9193 55.8747 69.757C56.1373 69.5947 56.3484 69.361 56.4833 69.0833C56.6237 68.8066 56.6841 68.4961 56.6576 68.187C56.6311 67.8778 56.5188 67.5821 56.3333 67.3333ZM50 66.6667C49.558 66.6667 49.134 66.8423 48.8215 67.1548C48.5089 67.4674 48.3333 67.8913 48.3333 68.3333V86.6667H41.6667V68.3333C41.6667 67.8913 41.4911 67.4674 41.1785 67.1548C40.866 66.8423 40.442 66.6667 40 66.6667H38.3333L45 57.7833L51.6667 66.6667H50Z" fill="#5C9CF6"/>
<path d="M18.3333 73.3333H11.6667C11.2246 73.3333 10.8007 73.5089 10.4882 73.8215C10.1756 74.134 10 74.558 10 75V88.3333C10 88.7754 10.1756 89.1993 10.4882 89.5118C10.8007 89.8244 11.2246 90 11.6667 90H18.3333C18.7754 90 19.1993 89.8244 19.5118 89.5118C19.8244 89.1993 20 88.7754 20 88.3333V75C20 74.558 19.8244 74.134 19.5118 73.8215C19.1993 73.5089 18.7754 73.3333 18.3333 73.3333ZM16.6667 86.6667H13.3333V76.6667H16.6667V86.6667Z" fill="#5C9CF6"/>
<path d="M31.6667 73.3333H25C24.558 73.3333 24.134 73.5089 23.8215 73.8215C23.5089 74.134 23.3333 74.558 23.3333 75V88.3333C23.3333 88.7754 23.5089 89.1993 23.8215 89.5118C24.134 89.8244 24.558 90 25 90H31.6667C32.1087 90 32.5326 89.8244 32.8452 89.5118C33.1577 89.1993 33.3333 88.7754 33.3333 88.3333V75C33.3333 74.558 33.1577 74.134 32.8452 73.8215C32.5326 73.5089 32.1087 73.3333 31.6667 73.3333ZM30 86.6667H26.6667V76.6667H30V86.6667Z" fill="#5C9CF6"/>
<path d="M25 30C24.558 30 24.134 29.8244 23.8215 29.5118C23.5089 29.1993 23.3333 28.7754 23.3333 28.3333C23.3333 27.8913 23.1577 27.4674 22.8452 27.1548C22.5326 26.8423 22.1087 26.6667 21.6667 26.6667C21.2246 26.6667 20.8007 26.8423 20.4882 27.1548C20.1756 27.4674 20 27.8913 20 28.3333C20.0043 29.3638 20.3268 30.3677 20.9235 31.2078C21.5202 32.0479 22.3618 32.6832 23.3333 33.0267V35C23.3333 35.442 23.5089 35.866 23.8215 36.1785C24.134 36.4911 24.558 36.6667 25 36.6667C25.442 36.6667 25.866 36.4911 26.1785 36.1785C26.4911 35.866 26.6667 35.442 26.6667 35V33.0267C27.7778 32.6353 28.7146 31.8633 29.3111 30.8474C29.9076 29.8316 30.1253 28.6374 29.9256 27.4764C29.726 26.3154 29.1219 25.2625 28.2204 24.5042C27.3189 23.7459 26.178 23.3311 25 23.3333C24.6704 23.3333 24.3481 23.2356 24.074 23.0524C23.8 22.8693 23.5863 22.609 23.4602 22.3045C23.3341 21.9999 23.301 21.6648 23.3654 21.3415C23.4297 21.0182 23.5884 20.7212 23.8215 20.4882C24.0546 20.2551 24.3515 20.0963 24.6748 20.032C24.9981 19.9677 25.3333 20.0007 25.6378 20.1269C25.9423 20.253 26.2026 20.4666 26.3858 20.7407C26.5689 21.0148 26.6667 21.337 26.6667 21.6667C26.6667 22.1087 26.8423 22.5326 27.1548 22.8452C27.4674 23.1577 27.8913 23.3333 28.3333 23.3333C28.7754 23.3333 29.1993 23.1577 29.5118 22.8452C29.8244 22.5326 30 22.1087 30 21.6667C29.9957 20.6362 29.6732 19.6323 29.0765 18.7922C28.4798 17.9521 27.6382 17.3168 26.6667 16.9733V15C26.6667 14.558 26.4911 14.134 26.1785 13.8215C25.866 13.5089 25.442 13.3333 25 13.3333C24.558 13.3333 24.134 13.5089 23.8215 13.8215C23.5089 14.134 23.3333 14.558 23.3333 15V16.9733C22.2222 17.3647 21.2854 18.1367 20.6889 19.1526C20.0924 20.1684 19.8747 21.3626 20.0744 22.5236C20.274 23.6846 20.8781 24.7375 21.7796 25.4958C22.6811 26.2541 23.822 26.6689 25 26.6667C25.442 26.6667 25.866 26.8423 26.1785 27.1548C26.4911 27.4674 26.6667 27.8913 26.6667 28.3333C26.6667 28.7754 26.4911 29.1993 26.1785 29.5118C25.866 29.8244 25.442 30 25 30Z" fill="#5C9CF6"/>
<path d="M25 6.66667C21.374 6.66667 17.8294 7.7419 14.8145 9.75639C11.7996 11.7709 9.44981 14.6342 8.06221 17.9841C6.6746 21.3341 6.31154 25.0203 7.01894 28.5767C7.72633 32.133 9.47241 35.3997 12.0364 37.9636C14.6003 40.5276 17.867 42.2737 21.4233 42.9811C24.9797 43.6885 28.6659 43.3254 32.0159 41.9378C35.3658 40.5502 38.2291 38.2004 40.2436 35.1855C42.2581 32.1706 43.3333 28.626 43.3333 25C43.3302 20.1386 41.3977 15.4773 37.9602 12.0398C34.5227 8.60229 29.8614 6.66976 25 6.66667ZM25 40C22.0333 40 19.1332 39.1203 16.6664 37.472C14.1997 35.8238 12.2771 33.4811 11.1418 30.7403C10.0065 27.9994 9.70944 24.9834 10.2882 22.0736C10.867 19.1639 12.2956 16.4912 14.3934 14.3934C16.4912 12.2956 19.1639 10.867 22.0736 10.2882C24.9834 9.70944 27.9994 10.0065 30.7403 11.1418C33.4811 12.2771 35.8238 14.1997 37.472 16.6664C39.1203 19.1332 40 22.0333 40 25C39.9938 28.9764 38.4115 32.7881 35.5998 35.5998C32.7881 38.4115 28.9764 39.9938 25 40Z" fill="#5C9CF6"/>
<path d="M40 50C40.442 50 40.866 49.8244 41.1785 49.5118C41.4911 49.1993 41.6667 48.7754 41.6667 48.3333C41.6667 47.8913 41.4911 47.4674 41.1785 47.1548C40.866 46.8423 40.442 46.6667 40 46.6667H10C9.55797 46.6667 9.13405 46.8423 8.82149 47.1548C8.50893 47.4674 8.33333 47.8913 8.33333 48.3333C8.33333 48.7754 8.50893 49.1993 8.82149 49.5118C9.13405 49.8244 9.55797 50 10 50H40Z" fill="#5C9CF6"/>
<path d="M96.6667 3.33333V0H93.3333V3.33333H90V6.66667H93.3333V10H96.6667V6.66667H100V3.33333H96.6667Z" fill="#5C9CF6"/>
<path d="M96.6667 90H93.3333V93.3333H90V96.6667H93.3333V100H96.6667V96.6667H100V93.3333H96.6667V90Z" fill="#5C9CF6"/>
</svg>
