<svg width="100" height="100" viewBox="0 0 100 100" fill="none" xmlns="http://www.w3.org/2000/svg">
<path d="M93.1803 86.0356C96.9406 86.0356 100 82.9762 100 79.2156V9.76562C100 4.38086 95.6191 0 90.2344 0H9.76562C4.38086 0 0 4.38086 0 9.76562V79.2156C0 82.9762 3.05938 86.0356 6.81973 86.0356H8.98438V96.0938H1.95312C0.874414 96.0938 0 96.9684 0 98.0469C0 99.1254 0.874414 100 1.95312 100H98.0469C99.1256 100 100 99.1254 100 98.0469C100 96.9684 99.1256 96.0938 98.0469 96.0938H91.0156V86.0356H93.1803ZM3.90625 9.76562C3.90625 6.53477 6.53477 3.90625 9.76562 3.90625H90.2344C93.4652 3.90625 96.0938 6.53477 96.0938 9.76562V14.0625H4.10234C4.03613 14.0625 3.9707 14.066 3.90625 14.0725V9.76562ZM21.4844 96.0938H12.8906V78.5156H21.4844V96.0938ZM43.3594 96.0938H34.7656V56.9203H43.3594V96.0938ZM65.2344 96.0938H56.6406V73.4375H65.2344V96.0938ZM89.0625 50.0977H76.5625C75.4838 50.0977 74.6094 50.9723 74.6094 52.0508V61.9139C74.6094 62.9924 75.4838 63.867 76.5625 63.867C77.6412 63.867 78.5156 62.9924 78.5156 61.9139V54.0039H87.1094V96.0938H78.5156V75.0488C78.5156 73.9703 77.6412 73.0957 76.5625 73.0957C75.4838 73.0957 74.6094 73.9703 74.6094 75.0488V96.0938H69.1406V71.4844C69.1406 70.4059 68.2662 69.5312 67.1875 69.5312H54.6875C53.6088 69.5312 52.7344 70.4059 52.7344 71.4844V96.0938H47.2656V54.9672C47.2656 53.8887 46.3912 53.0141 45.3125 53.0141H32.8125C31.7338 53.0141 30.8594 53.8887 30.8594 54.9672V96.0938H25.3906V76.5625C25.3906 75.484 24.5162 74.6094 23.4375 74.6094H10.9375C9.85879 74.6094 8.98438 75.484 8.98438 76.5625V82.1293H6.81973C5.21309 82.1293 3.90625 80.8223 3.90625 79.2156V17.9588C3.9707 17.9652 4.03613 17.9688 4.10234 17.9688H96.0938V79.2156C96.0938 80.8223 94.7867 82.1293 93.1803 82.1293H91.0156V52.0508C91.0156 50.9723 90.1412 50.0977 89.0625 50.0977Z" fill="#5C9CF6"/>
<path d="M87.5 7.03125H43.372C42.2933 7.03125 41.4189 7.90586 41.4189 8.98438C41.4189 10.0629 42.2933 10.9375 43.372 10.9375H87.5C88.5787 10.9375 89.4531 10.0629 89.4531 8.98438C89.4531 7.90586 88.5787 7.03125 87.5 7.03125Z" fill="#5C9CF6"/>
<path d="M21.6934 7.60352C21.3301 7.24023 20.8262 7.03125 20.3125 7.03125C19.7988 7.03125 19.2949 7.24004 18.9316 7.60352C18.5684 7.9668 18.3594 8.4707 18.3594 8.98438C18.3594 9.49805 18.5684 10.002 18.9316 10.365C19.2949 10.7285 19.7988 10.9375 20.3125 10.9375C20.8262 10.9375 21.3301 10.7285 21.6934 10.365C22.0566 10.002 22.2656 9.49805 22.2656 8.98438C22.2656 8.4707 22.0566 7.9668 21.6934 7.60352Z" fill="#5C9CF6"/>
<path d="M13.8809 7.60352C13.5176 7.24023 13.0137 7.03125 12.5 7.03125C11.9863 7.03125 11.4824 7.24004 11.1191 7.60352C10.7559 7.9668 10.5469 8.4707 10.5469 8.98438C10.5469 9.49805 10.7559 10.002 11.1191 10.365C11.4824 10.7285 11.9863 10.9375 12.5 10.9375C13.0137 10.9375 13.5176 10.7285 13.8809 10.365C14.2441 10.002 14.4531 9.49805 14.4531 8.98438C14.4531 8.4707 14.2441 7.9668 13.8809 7.60352Z" fill="#5C9CF6"/>
<path d="M29.5059 7.60352C29.1426 7.24023 28.6406 7.03125 28.125 7.03125C27.6113 7.03125 27.1074 7.24004 26.7441 7.60352C26.3809 7.9668 26.1719 8.4707 26.1719 8.98438C26.1719 9.49805 26.3809 10.002 26.7441 10.365C27.1074 10.7285 27.6113 10.9375 28.125 10.9375C28.6387 10.9375 29.1426 10.7285 29.5059 10.365C29.8691 10.002 30.0781 9.49805 30.0781 8.98438C30.0781 8.4707 29.8691 7.9668 29.5059 7.60352Z" fill="#5C9CF6"/>
<path d="M77.9434 67.4943C77.5801 67.1291 77.0762 66.922 76.5625 66.922C76.0488 66.922 75.5449 67.1293 75.1816 67.4943C74.8184 67.8576 74.6094 68.3615 74.6094 68.8752C74.6094 69.3888 74.8184 69.8927 75.1816 70.256C75.5449 70.6191 76.0488 70.8283 76.5625 70.8283C77.0762 70.8283 77.5801 70.6193 77.9434 70.256C78.3066 69.8927 78.5156 69.3888 78.5156 68.8752C78.5156 68.3595 78.3066 67.8576 77.9434 67.4943Z" fill="#5C9CF6"/>
<path d="M82.8125 26.5505C78.9354 26.5505 75.7813 29.7046 75.7813 33.5818C75.7813 35.1218 76.2803 36.5468 77.1233 37.7064L64.1496 50.68C63.1428 50.1228 61.9861 49.8044 60.7561 49.8044C59.6477 49.8044 58.5988 50.0632 57.6654 50.522L44.1188 36.9753C44.676 35.9685 44.9943 34.8118 44.9943 33.5818C44.9943 29.7046 41.8402 26.5505 37.9631 26.5505C34.0859 26.5505 30.9318 29.7046 30.9318 33.5818C30.9318 34.9368 31.3182 36.2029 31.985 37.2775L20.4512 48.8111C19.4443 48.2538 18.2877 47.9355 17.0578 47.9355C13.1807 47.9355 10.0266 51.0896 10.0266 54.9667C10.0266 58.8439 13.1807 61.998 17.0578 61.998C20.935 61.998 24.0891 58.8439 24.0891 54.9667C24.0891 53.7367 23.7707 52.58 23.2135 51.5732L34.885 39.9017C35.8152 40.3566 36.8598 40.6128 37.9631 40.6128C39.193 40.6128 40.3496 40.2945 41.3565 39.7372L54.7705 53.1511C54.1082 54.2234 53.7248 55.4851 53.7248 56.8353C53.7248 60.7124 56.8789 63.8665 60.7561 63.8665C64.6332 63.8665 67.7873 60.7124 67.7873 56.8353C67.7873 55.6052 67.469 54.4486 66.9117 53.4417L80.233 40.1204C81.0324 40.4372 81.9022 40.613 82.8125 40.613C86.6897 40.613 89.8438 37.4589 89.8438 33.5818C89.8438 29.7046 86.6897 26.5505 82.8125 26.5505ZM17.058 58.0921C15.335 58.0921 13.933 56.6902 13.933 54.9671C13.933 53.2441 15.335 51.8421 17.058 51.8421C18.7811 51.8421 20.183 53.2441 20.183 54.9671C20.183 56.6902 18.7811 58.0921 17.058 58.0921ZM37.9633 36.7068C36.2402 36.7068 34.8383 35.3048 34.8383 33.5818C34.8383 31.8587 36.2402 30.4568 37.9633 30.4568C39.6863 30.4568 41.0883 31.8587 41.0883 33.5818C41.0883 35.3048 39.6863 36.7068 37.9633 36.7068ZM60.7563 59.9607C59.0332 59.9607 57.6313 58.5587 57.6313 56.8357C57.6313 55.1126 59.0332 53.7107 60.7563 53.7107C62.4793 53.7107 63.8813 55.1126 63.8813 56.8357C63.8813 58.5587 62.4793 59.9607 60.7563 59.9607ZM82.8125 36.7068C81.0895 36.7068 79.6875 35.3048 79.6875 33.5818C79.6875 31.8587 81.0895 30.4568 82.8125 30.4568C84.5356 30.4568 85.9375 31.8587 85.9375 33.5818C85.9375 35.3048 84.5356 36.7068 82.8125 36.7068Z" fill="#5C9CF6"/>
<path d="M28.9707 25.1859C28.6055 24.8227 28.1035 24.6135 27.5898 24.6135C27.0742 24.6135 26.5703 24.8225 26.207 25.1859C25.8437 25.549 25.6367 26.0529 25.6367 26.5666C25.6367 27.0803 25.8437 27.5842 26.207 27.9475C26.5723 28.3107 27.0742 28.5197 27.5898 28.5197C28.1035 28.5197 28.6055 28.3109 28.9707 27.9475C29.334 27.5842 29.543 27.0803 29.543 26.5666C29.543 26.0529 29.334 25.549 28.9707 25.1859Z" fill="#5C9CF6"/>
<path d="M20.3125 24.6136H10.9375C9.85879 24.6136 8.98438 25.4882 8.98438 26.5667C8.98438 27.6452 9.85879 28.5198 10.9375 28.5198H20.3125C21.3912 28.5198 22.2656 27.6452 22.2656 26.5667C22.2656 25.4882 21.3912 24.6136 20.3125 24.6136Z" fill="#5C9CF6"/>
<path d="M20.3125 33.9886H10.9375C9.85879 33.9886 8.98438 34.8632 8.98438 35.9417C8.98438 37.0202 9.85879 37.8948 10.9375 37.8948H20.3125C21.3912 37.8948 22.2656 37.0202 22.2656 35.9417C22.2656 34.8632 21.3912 33.9886 20.3125 33.9886Z" fill="#5C9CF6"/>
</svg>
