<svg width="100" height="100" viewBox="0 0 100 100" fill="none" xmlns="http://www.w3.org/2000/svg">
<path d="M56.6667 36.2706H43.3333C42.4129 36.2706 41.6667 37.0418 41.6667 37.993V86.2207C41.6667 87.1719 42.4129 87.9431 43.3333 87.9431H56.6667C57.5871 87.9431 58.3333 87.1719 58.3333 86.2207V37.993C58.3333 37.0416 57.5871 36.2706 56.6667 36.2706ZM55 84.4983H45V39.7154H55V84.4983Z" fill="#5C9CF6"/>
<path d="M96.6667 29.3809H83.3333C82.4129 29.3809 81.6667 30.1522 81.6667 31.1034V86.2207C81.6667 87.1719 82.4129 87.9431 83.3333 87.9431H96.6667C97.5871 87.9431 98.3333 87.1719 98.3333 86.2207V31.1034C98.3333 30.1519 97.5871 29.3809 96.6667 29.3809ZM95 84.4983H85V32.8258H95V84.4983Z" fill="#5C9CF6"/>
<path d="M76.6667 67.2741H63.3333C62.4129 67.2741 61.6667 68.0453 61.6667 68.9965V86.2207C61.6667 87.1719 62.4129 87.9431 63.3333 87.9431H76.6667C77.5871 87.9431 78.3333 87.1719 78.3333 86.2207V68.9965C78.3333 68.0451 77.5871 67.2741 76.6667 67.2741ZM75 84.4983H65V70.7189H75V84.4983Z" fill="#5C9CF6"/>
<path d="M16.6667 43.1603H3.33333C2.41292 43.1603 1.66667 43.9315 1.66667 44.8827V86.2207C1.66667 87.1719 2.41292 87.9431 3.33333 87.9431H16.6667C17.5871 87.9431 18.3333 87.1719 18.3333 86.2207V44.8827C18.3333 43.9313 17.5871 43.1603 16.6667 43.1603ZM15 84.4983H5V46.6051H15V84.4983Z" fill="#5C9CF6"/>
<path d="M36.6667 53.4948H23.3333C22.4129 53.4948 21.6667 54.266 21.6667 55.2172V86.2207C21.6667 87.1719 22.4129 87.9431 23.3333 87.9431H36.6667C37.5871 87.9431 38.3333 87.1719 38.3333 86.2207V55.2172C38.3333 54.2658 37.5871 53.4948 36.6667 53.4948ZM35 84.4983H25V56.9396H35V84.4983Z" fill="#5C9CF6"/>
<path d="M90.0969 0.000183244C86.3883 -0.0273754 83.3604 3.05704 83.3337 6.88963C83.3202 8.82477 84.0892 10.6779 85.4552 12.0015L71.6219 38.2219C70.3688 37.8634 69.0377 37.9269 67.8219 38.4027L54.9533 18.4453C57.419 15.6195 57.201 11.2628 54.4665 8.71496C51.7319 6.16708 47.5165 6.39207 45.051 9.21812C43.2396 11.2945 42.8217 14.2962 43.9933 16.8161L33.875 25.5193C31.0992 23.4268 27.2325 23.895 25 26.5941L16.515 22.2088C17.2846 18.4877 14.9894 14.8265 11.389 14.0314C7.78833 13.2361 4.24563 15.6079 3.47625 19.3289C2.70667 23.05 5.00167 26.7112 8.60229 27.5063C9.06167 27.6077 9.53021 27.6587 10 27.6585C11.9219 27.6521 13.7462 26.7835 15 25.2781L23.485 29.6634C22.6844 33.3774 24.9487 37.059 28.5425 37.8865C32.1362 38.7139 35.6987 36.3737 36.4994 32.6598C36.825 31.1494 36.6492 29.5698 36 28.1753L46.1183 19.4719C47.8623 20.8057 50.139 21.1424 52.175 20.3675L65.04 40.3252C62.581 43.1573 62.8094 47.5133 65.55 50.0545C68.2904 52.5957 72.5054 52.3597 74.9644 49.5274C77.3931 46.73 77.2044 42.4373 74.5402 39.8791L88.3735 13.6587C88.9048 13.8021 89.4512 13.8762 90.0002 13.8792C93.7087 13.9068 96.7367 10.8223 96.7633 6.98975C96.79 3.15716 93.8052 0.0279572 90.0969 0.000183244ZM10 24.2137C8.15896 24.2137 6.66667 22.6715 6.66667 20.7689C6.66667 18.8662 8.15896 17.324 10 17.324C11.841 17.324 13.3333 18.8662 13.3333 20.7689C13.3333 22.6715 11.841 24.2137 10 24.2137ZM30 34.5482C28.159 34.5482 26.6667 33.006 26.6667 31.1034C26.6667 29.2007 28.159 27.6585 30 27.6585C31.841 27.6585 33.3333 29.2007 33.3333 31.1034C33.3333 33.006 31.841 34.5482 30 34.5482ZM50 17.324C48.159 17.324 46.6667 15.7818 46.6667 13.8792C46.6667 11.9766 48.159 10.4344 50 10.4344C51.841 10.4344 53.3333 11.9766 53.3333 13.8792C53.3333 15.7818 51.841 17.324 50 17.324ZM70 48.3275C68.159 48.3275 66.6667 46.7853 66.6667 44.8827C66.6667 42.9801 68.159 41.4379 70 41.4379C71.841 41.4379 73.3333 42.9801 73.3333 44.8827C73.3333 46.7853 71.841 48.3275 70 48.3275ZM90 10.4344C88.159 10.4344 86.6667 8.89216 86.6667 6.98953C86.6667 5.08691 88.159 3.5447 90 3.5447C91.841 3.5447 93.3333 5.08691 93.3333 6.98953C93.3333 8.89216 91.841 10.4344 90 10.4344Z" fill="#5C9CF6"/>
<path d="M98.3333 89.6655H1.66667C0.74625 89.6655 0 90.4367 0 91.3879V98.2776C0 99.2288 0.74625 100 1.66667 100H98.3333C99.2537 100 100 99.2288 100 98.2776V91.3879C100 90.4365 99.2537 89.6655 98.3333 89.6655ZM96.6667 96.5552H3.33333V93.1103H96.6667V96.5552Z" fill="#5C9CF6"/>
</svg>
