<svg width="100" height="100" viewBox="0 0 100 100" fill="none" xmlns="http://www.w3.org/2000/svg">
<path d="M17.2414 49.3364L15.0121 47.251L12.5741 49.5315L16.0224 52.757C16.3457 53.0594 16.7842 53.2292 17.2414 53.2292C17.6986 53.2292 18.137 53.0594 18.4603 52.757L25.3569 46.306L22.919 44.0255L17.2414 49.3364Z" fill="#5C9CF6"/>
<path d="M17.2414 65.4641L15.0121 63.3788L12.5741 65.6592L16.0224 68.8848C16.3457 69.1871 16.7842 69.357 17.2414 69.357C17.6986 69.357 18.137 69.1871 18.4603 68.8848L25.3569 62.4337L22.919 60.1532L17.2414 65.4641Z" fill="#5C9CF6"/>
<path d="M17.2414 81.5918L15.0121 79.5065L12.5741 81.787L16.0224 85.0125C16.3457 85.3148 16.7842 85.4847 17.2414 85.4847C17.6986 85.4847 18.137 85.3148 18.4603 85.0125L25.3569 78.5614L22.919 76.2809L17.2414 81.5918Z" fill="#5C9CF6"/>
<path d="M44.8276 37.1019V27.4252C44.8276 26.9975 44.6459 26.5873 44.3226 26.2848C43.9993 25.9824 43.5607 25.8124 43.1034 25.8124H15.5172C15.06 25.8124 14.6214 25.9824 14.2981 26.2848C13.9748 26.5873 13.7931 26.9975 13.7931 27.4252V37.1019C13.7931 37.5296 13.9748 37.9398 14.2981 38.2423C14.6214 38.5447 15.06 38.7146 15.5172 38.7146H43.1034C43.5607 38.7146 43.9993 38.5447 44.3226 38.2423C44.6459 37.9398 44.8276 37.5296 44.8276 37.1019ZM41.3793 35.4891H17.2414V29.038H41.3793V35.4891Z" fill="#5C9CF6"/>
<path d="M29.3103 43.553H46.5517V46.7785H29.3103V43.553Z" fill="#5C9CF6"/>
<path d="M29.3103 50.004H51.7241V53.2296H29.3103V50.004Z" fill="#5C9CF6"/>
<path d="M55.1724 50.004H58.6207V53.2296H55.1724V50.004Z" fill="#5C9CF6"/>
<path d="M29.3103 59.6807H41.3793V62.9062H29.3103V59.6807Z" fill="#5C9CF6"/>
<path d="M29.3103 75.8084H37.931V79.034H29.3103V75.8084Z" fill="#5C9CF6"/>
<path d="M93.1034 61.2934H81.0345V59.6807C81.0345 57.9697 80.3079 56.3289 79.0145 55.1191C77.7212 53.9093 75.967 53.2296 74.1379 53.2296H72.4138V16.1358C72.4138 14.4249 71.6872 12.784 70.3938 11.5742C69.1005 10.3644 67.3463 9.68472 65.5172 9.68472H51.4069C51.0516 8.74462 50.3944 7.93017 49.5253 7.35279C48.6563 6.77541 47.6177 6.46331 46.5517 6.45918H44.6552C44.2595 4.63628 43.2022 2.9974 41.6625 1.82023C40.1228 0.643064 38.1954 0 36.2069 0C34.2184 0 32.291 0.643064 30.7513 1.82023C29.2116 2.9974 28.1543 4.63628 27.7586 6.45918H25.8621C24.7961 6.46331 23.7575 6.77541 22.8884 7.35279C22.0194 7.93017 21.3622 8.74462 21.0069 9.68472H6.89655C5.06747 9.68472 3.31331 10.3644 2.01995 11.5742C0.726599 12.784 0 14.4249 0 16.1358V93.5489C0 95.2598 0.726599 96.9007 2.01995 98.1105C3.31331 99.3203 5.06747 100 6.89655 100H93.1034C94.9325 100 96.6867 99.3203 97.98 98.1105C99.2734 96.9007 100 95.2598 100 93.5489V67.7445C100 66.0336 99.2734 64.3927 97.98 63.1829C96.6867 61.9731 94.9325 61.2934 93.1034 61.2934ZM96.5517 67.7445V69.8411L76.8035 76.4374C76.4707 76.5487 76.1276 76.639 75.7862 76.7325C75.6136 75.583 75.0029 74.5305 74.0663 73.7689C73.1298 73.0073 71.9306 72.5878 70.6897 72.5878C69.4487 72.5878 68.2495 73.0073 67.313 73.7689C66.3764 74.5305 65.7657 75.583 65.5931 76.7325C65.2483 76.639 64.9034 76.5503 64.5741 76.439L44.8276 69.8411V67.7445C44.8276 66.8891 45.1909 66.0686 45.8376 65.4637C46.4842 64.8588 47.3613 64.519 48.2759 64.519H93.1034C94.018 64.519 94.8951 64.8588 95.5417 65.4637C96.1884 66.0686 96.5517 66.8891 96.5517 67.7445ZM72.4138 77.4212V80.6467C72.4138 81.0745 72.2321 81.4847 71.9088 81.7871C71.5855 82.0896 71.1469 82.2595 70.6897 82.2595C70.2324 82.2595 69.7938 82.0896 69.4705 81.7871C69.1472 81.4847 68.9655 81.0745 68.9655 80.6467V77.4212C68.9655 76.9934 69.1472 76.5832 69.4705 76.2808C69.7938 75.9783 70.2324 75.8084 70.6897 75.8084C71.1469 75.8084 71.5855 75.9783 71.9088 76.2808C72.2321 76.5832 72.4138 76.9934 72.4138 77.4212ZM51.7241 24.8674L59.631 32.2635H51.7241V24.8674ZM50 35.4891H62.069V55.4584C60.9641 56.6227 60.3511 58.1239 60.3448 59.6807V61.2934H48.2759C46.7514 61.2988 45.2717 61.7765 44.0682 62.6519C42.8647 63.5273 42.0053 64.751 41.6241 66.1318H29.3103V69.3573H41.3793V82.2595H29.3103V85.485H41.3793V90.3234H10.3448V22.5869H48.2759V33.8763C48.2759 34.304 48.4575 34.7143 48.7808 35.0167C49.1042 35.3192 49.5427 35.4891 50 35.4891ZM77.5862 59.6807V61.2934H63.7931V59.6807C63.7931 58.8252 64.1564 58.0048 64.8031 57.3999C65.4498 56.795 66.3268 56.4551 67.2414 56.4551H74.1379C75.0525 56.4551 75.9296 56.795 76.5762 57.3999C77.2229 58.0048 77.5862 58.8252 77.5862 59.6807ZM25.8621 9.68472H29.3103C29.7676 9.68472 30.2062 9.5148 30.5295 9.21235C30.8528 8.9099 31.0345 8.49968 31.0345 8.07195C31.0345 6.78875 31.5794 5.5581 32.5494 4.65074C33.5195 3.74338 34.8351 3.23363 36.2069 3.23363C37.5787 3.23363 38.8943 3.74338 39.8643 4.65074C40.8344 5.5581 41.3793 6.78875 41.3793 8.07195C41.3793 8.49968 41.561 8.9099 41.8843 9.21235C42.2076 9.5148 42.6462 9.68472 43.1034 9.68472H46.5517C47.009 9.68472 47.4475 9.85464 47.7709 10.1571C48.0942 10.4595 48.2759 10.8698 48.2759 11.2975C48.2759 11.7252 48.0942 12.1354 47.7709 12.4379C47.4475 12.7403 47.009 12.9103 46.5517 12.9103H25.8621C25.4048 12.9103 24.9663 12.7403 24.6429 12.4379C24.3196 12.1354 24.1379 11.7252 24.1379 11.2975C24.1379 10.8698 24.3196 10.4595 24.6429 10.1571C24.9663 9.85464 25.4048 9.68472 25.8621 9.68472ZM3.44828 93.5489V16.1358C3.44828 15.2803 3.81158 14.4599 4.45825 13.855C5.10493 13.2501 5.98201 12.9103 6.89655 12.9103H21.0069C21.3622 13.8504 22.0194 14.6648 22.8884 15.2422C23.7575 15.8196 24.7961 16.1317 25.8621 16.1358H46.5517C47.6177 16.1317 48.6563 15.8196 49.5253 15.2422C50.3944 14.6648 51.0516 13.8504 51.4069 12.9103H65.5172C66.4318 12.9103 67.3089 13.2501 67.9555 13.855C68.6022 14.4599 68.9655 15.2803 68.9655 16.1358V53.2296H67.2414C66.6585 53.2364 66.0791 53.3134 65.5172 53.4586V33.8763C65.5171 33.4486 65.3354 33.0385 65.0121 32.7361L51.219 19.8339C50.8957 19.5314 50.4572 19.3615 50 19.3614H8.62069C8.16342 19.3614 7.72488 19.5313 7.40154 19.8337C7.0782 20.1362 6.89655 20.5464 6.89655 20.9741V91.9361C6.89655 92.3639 7.0782 92.7741 7.40154 93.0765C7.72488 93.379 8.16342 93.5489 8.62069 93.5489H41.3793C41.3865 94.6847 41.7174 95.7982 42.3379 96.7745H6.89655C5.98201 96.7745 5.10493 96.4346 4.45825 95.8297C3.81158 95.2248 3.44828 94.4044 3.44828 93.5489ZM93.1034 96.7745H48.2759C47.3613 96.7745 46.4842 96.4346 45.8376 95.8297C45.1909 95.2248 44.8276 94.4044 44.8276 93.5489V73.2586L63.4138 79.4678C64.1041 79.6942 64.8061 79.8879 65.5172 80.0484V80.6467C65.5172 81.9299 66.0622 83.1606 67.0322 84.0679C68.0022 84.9753 69.3178 85.485 70.6897 85.485C72.0615 85.485 73.3771 84.9753 74.3471 84.0679C75.3171 83.1606 75.8621 81.9299 75.8621 80.6467V80.0468C76.5734 79.8876 77.2754 79.6944 77.9655 79.4678L96.5517 73.2586V93.5489C96.5517 94.4044 96.1884 95.2248 95.5417 95.8297C94.8951 96.4346 94.018 96.7745 93.1034 96.7745Z" fill="#5C9CF6"/>
</svg>
