<svg width="15" height="17" viewBox="0 0 15 17" fill="none" xmlns="http://www.w3.org/2000/svg">
<g clip-path="url(#clip0)">
<path d="M14.9305 4.24983L7.46558 0L7.46585 8.49918L14.9307 12.749L14.9305 4.24983Z" fill="#6E6E6E"/>
<path d="M7.4655 -7.31717e-05L0.000610352 4.24976L0.000335937 12.7489L7.46522 8.49911L7.4655 -7.31717e-05Z" fill="#5A5A5A"/>
<path d="M14.9301 12.7479L7.46497 8.49854L-0.000188346 12.7479L7.46497 16.9972L14.9301 12.7479Z" fill="#AAAAAA"/>
<path d="M7.46489 8.49983L0 4.25L0.000274414 12.7492L7.46516 16.999L7.46489 8.49983Z" fill="url(#paint0_linear)"/>
<path d="M7.46489 8.49983L0 4.25L0.000274414 12.7492L7.46516 16.999L7.46489 8.49983Z" fill="url(#paint1_radial)"/>
<path d="M7.46489 8.49983L0 4.25L0.000274414 12.7492L7.46516 16.999L7.46489 8.49983Z" fill="url(#paint2_radial)"/>
<path d="M14.9299 4.24822L7.46497 8.49805L7.46469 16.9972L14.9296 12.7474L14.9299 4.24822Z" fill="url(#paint3_linear)"/>
<path d="M14.9299 4.24822L7.46497 8.49805L7.46469 16.9972L14.9296 12.7474L14.9299 4.24822Z" fill="url(#paint4_radial)"/>
<path d="M14.9299 4.24822L7.46497 8.49805L7.46469 16.9972L14.9296 12.7474L14.9299 4.24822Z" fill="url(#paint5_radial)"/>
<path d="M7.46515 0.000157588L0 4.24951L7.46515 8.49887L14.9303 4.24951L7.46515 0.000157588Z" fill="url(#paint6_linear)"/>
<path d="M7.46515 0.000157588L0 4.24951L7.46515 8.49887L14.9303 4.24951L7.46515 0.000157588Z" fill="url(#paint7_radial)"/>
<path d="M7.46515 0.000157588L0 4.24951L7.46515 8.49887L14.9303 4.24951L7.46515 0.000157588Z" fill="url(#paint8_radial)"/>
</g>
<defs>
<linearGradient id="paint0_linear" x1="1.73854e-08" y1="4.25166" x2="-0.0386756" y2="16.979" gradientUnits="userSpaceOnUse">
<stop stop-color="#B340E4"/>
<stop offset="0.570833" stop-color="#540E6C"/>
<stop offset="1" stop-color="#7F01BB"/>
</linearGradient>
<radialGradient id="paint1_radial" cx="0" cy="0" r="1" gradientUnits="userSpaceOnUse" gradientTransform="translate(7.4138 8.58666) rotate(147.83) scale(5.90686 4.89126)">
<stop stop-color="#5B9AF5"/>
<stop offset="1" stop-color="#184DB6" stop-opacity="0"/>
</radialGradient>
<radialGradient id="paint2_radial" cx="0" cy="0" r="1" gradientUnits="userSpaceOnUse" gradientTransform="translate(7.41379 8.5) rotate(150.177) scale(8.54558 7.15894)">
<stop stop-color="white" stop-opacity="0.7"/>
<stop offset="1" stop-color="white" stop-opacity="0"/>
</radialGradient>
<linearGradient id="paint3_linear" x1="7.46497" y1="8.49971" x2="13.7774" y2="14.0586" gradientUnits="userSpaceOnUse">
<stop stop-color="#B340E4"/>
<stop offset="0.570833" stop-color="#540E6C"/>
<stop offset="1" stop-color="#7F01BB"/>
</linearGradient>
<radialGradient id="paint4_radial" cx="0" cy="0" r="1" gradientUnits="userSpaceOnUse" gradientTransform="translate(14.8788 4.39323) rotate(119.5) scale(10.1548 2.84516)">
<stop stop-color="#5B9AF5"/>
<stop offset="1" stop-color="#184DB6" stop-opacity="0"/>
</radialGradient>
<radialGradient id="paint5_radial" cx="0" cy="0" r="1" gradientUnits="userSpaceOnUse" gradientTransform="translate(7.41378 7.81987) rotate(34.7869) scale(9.23707 10.6324)">
<stop stop-color="#410650" stop-opacity="0.7"/>
<stop offset="1" stop-color="white" stop-opacity="0"/>
</radialGradient>
<linearGradient id="paint6_linear" x1="0.00145817" y1="4.25034" x2="11.0802" y2="10.7837" gradientUnits="userSpaceOnUse">
<stop stop-color="#B340E4"/>
<stop offset="0.570833" stop-color="#540E6C"/>
<stop offset="1" stop-color="#7F01BB"/>
</linearGradient>
<radialGradient id="paint7_radial" cx="0" cy="0" r="1" gradientUnits="userSpaceOnUse" gradientTransform="translate(7.51588 0.0871999) rotate(87.4292) scale(5.84788 4.94058)">
<stop stop-color="#5B9AF5"/>
<stop offset="1" stop-color="#184DB6" stop-opacity="0"/>
</radialGradient>
<radialGradient id="paint8_radial" cx="0" cy="0" r="1" gradientUnits="userSpaceOnUse" gradientTransform="translate(7.41379 8.50017) rotate(-87.261) scale(9.02029 7.92194)">
<stop stop-color="white" stop-opacity="0.7"/>
<stop offset="1" stop-color="white" stop-opacity="0"/>
</radialGradient>
<clipPath id="clip0">
<rect width="15" height="17" fill="white"/>
</clipPath>
</defs>
</svg>
