<svg width="67" height="67" viewBox="0 0 67 67" fill="none" xmlns="http://www.w3.org/2000/svg">
<path d="M33.5 0C14.9987 0 0 14.9984 0 33.5C0 52.0016 14.9987 67 33.5 67C52.0013 67 67 52.0016 67 33.5C67 14.9984 52.0013 0 33.5 0ZM45.0784 35.2758L28.3284 45.7445C27.9895 45.9561 27.6041 46.0625 27.2188 46.0625C26.8696 46.0625 26.52 45.9756 26.2035 45.7997C25.538 45.4307 25.125 44.7304 25.125 43.9688V23.0312C25.125 22.2696 25.538 21.5693 26.2035 21.2003C26.8691 20.8291 27.6829 20.8517 28.3284 21.2555L45.0784 31.7242C45.6903 32.1077 46.0625 32.7783 46.0625 33.5C46.0625 34.2217 45.6903 34.8925 45.0784 35.2758Z" fill="url(#paint0_linear)"/>
<defs>
<linearGradient id="paint0_linear" x1="0" y1="33.5" x2="67" y2="33.5" gradientUnits="userSpaceOnUse">
<stop stop-color="#9400D3"/>
<stop offset="1" stop-color="#4B0082"/>
</linearGradient>
</defs>
</svg>
